<mxfile host="app.diagrams.net" modified="2023-11-12T19:08:29.705Z" agent="Mozilla/5.0 (Macintosh; Intel Mac OS X 10_15_7) AppleWebKit/537.36 (KHTML, like Gecko) Chrome/118.0.0.0 Safari/537.36" etag="q54wP3AA62piGD14FKdJ" version="22.1.0" type="device">
  <diagram name="Page-1" id="jXFGc23CVKNMNSug0zPu">
    <mxGraphModel dx="2597" dy="1789" grid="1" gridSize="10" guides="1" tooltips="1" connect="1" arrows="1" fold="1" page="1" pageScale="1" pageWidth="850" pageHeight="1100" math="0" shadow="0">
      <root>
        <mxCell id="0" />
        <mxCell id="1" parent="0" />
        <mxCell id="zU4v-zq11pWea2lDjNRs-47" value="" style="group" vertex="1" connectable="0" parent="1">
          <mxGeometry x="-90" y="253" width="1550" height="1378.43" as="geometry" />
        </mxCell>
        <mxCell id="zU4v-zq11pWea2lDjNRs-26" value="" style="rounded=0;whiteSpace=wrap;html=1;" vertex="1" parent="zU4v-zq11pWea2lDjNRs-47">
          <mxGeometry width="1550" height="980" as="geometry" />
        </mxCell>
        <mxCell id="zU4v-zq11pWea2lDjNRs-27" value="Opt" style="rounded=0;whiteSpace=wrap;html=1;" vertex="1" parent="zU4v-zq11pWea2lDjNRs-47">
          <mxGeometry width="61.386138613861384" height="36.149732620320854" as="geometry" />
        </mxCell>
        <mxCell id="zU4v-zq11pWea2lDjNRs-28" value="&lt;font style=&quot;font-size: 6px;&quot;&gt;[player enters number for mxn]&lt;/font&gt;" style="text;html=1;align=center;verticalAlign=middle;resizable=0;points=[];autosize=1;strokeColor=none;fillColor=none;" vertex="1" parent="zU4v-zq11pWea2lDjNRs-47">
          <mxGeometry x="198.54455445544554" y="-11.567914438502674" width="110" height="30" as="geometry" />
        </mxCell>
        <mxCell id="zU4v-zq11pWea2lDjNRs-108" value="" style="rounded=0;whiteSpace=wrap;html=1;" vertex="1" parent="zU4v-zq11pWea2lDjNRs-47">
          <mxGeometry x="31.76" y="262" width="1488.24" height="665" as="geometry" />
        </mxCell>
        <mxCell id="zU4v-zq11pWea2lDjNRs-50" value="" style="group" vertex="1" connectable="0" parent="zU4v-zq11pWea2lDjNRs-47">
          <mxGeometry x="31.762295081967213" y="257" width="1486.4754098360656" height="755" as="geometry" />
        </mxCell>
        <mxCell id="zU4v-zq11pWea2lDjNRs-38" value="Opt" style="rounded=0;whiteSpace=wrap;html=1;" vertex="1" parent="zU4v-zq11pWea2lDjNRs-50">
          <mxGeometry y="5" width="61.93647540983607" height="25" as="geometry" />
        </mxCell>
        <mxCell id="zU4v-zq11pWea2lDjNRs-44" value="&lt;font style=&quot;font-size: 6px;&quot;&gt;[player checks CPU Player]&lt;/font&gt;" style="text;html=1;align=center;verticalAlign=middle;resizable=0;points=[];autosize=1;strokeColor=none;fillColor=none;" vertex="1" parent="zU4v-zq11pWea2lDjNRs-50">
          <mxGeometry x="184.51972336065575" width="100" height="30" as="geometry" />
        </mxCell>
        <mxCell id="zU4v-zq11pWea2lDjNRs-66" value="" style="rounded=0;whiteSpace=wrap;html=1;" vertex="1" parent="zU4v-zq11pWea2lDjNRs-50">
          <mxGeometry x="10" y="60" width="1440" height="570" as="geometry" />
        </mxCell>
        <mxCell id="zU4v-zq11pWea2lDjNRs-67" value="Loop" style="rounded=0;whiteSpace=wrap;html=1;" vertex="1" parent="zU4v-zq11pWea2lDjNRs-50">
          <mxGeometry x="10" y="60" width="61.93647540983607" height="25" as="geometry" />
        </mxCell>
        <mxCell id="zU4v-zq11pWea2lDjNRs-60" value="checkTile()" style="text;html=1;align=center;verticalAlign=middle;resizable=0;points=[];autosize=1;strokeColor=none;fillColor=none;" vertex="1" parent="zU4v-zq11pWea2lDjNRs-50">
          <mxGeometry x="190.45081967213116" y="110" width="80" height="30" as="geometry" />
        </mxCell>
        <mxCell id="zU4v-zq11pWea2lDjNRs-69" value="" style="rounded=0;whiteSpace=wrap;html=1;" vertex="1" parent="zU4v-zq11pWea2lDjNRs-50">
          <mxGeometry x="38.24" y="195" width="1391.76" height="195" as="geometry" />
        </mxCell>
        <mxCell id="zU4v-zq11pWea2lDjNRs-68" value="[game is won]" style="text;html=1;align=center;verticalAlign=middle;resizable=0;points=[];autosize=1;strokeColor=none;fillColor=none;rotation=0;" vertex="1" parent="zU4v-zq11pWea2lDjNRs-50">
          <mxGeometry x="153.2377049180328" y="195" width="100" height="30" as="geometry" />
        </mxCell>
        <mxCell id="zU4v-zq11pWea2lDjNRs-70" value="Opt" style="rounded=0;whiteSpace=wrap;html=1;" vertex="1" parent="zU4v-zq11pWea2lDjNRs-50">
          <mxGeometry x="38.239999999999995" y="195" width="61.93647540983607" height="25" as="geometry" />
        </mxCell>
        <mxCell id="zU4v-zq11pWea2lDjNRs-72" value="checkDiagonal()&lt;br&gt;checkHorizontal()&lt;br&gt;checkVertical()" style="text;html=1;align=center;verticalAlign=middle;resizable=0;points=[];autosize=1;strokeColor=none;fillColor=none;" vertex="1" parent="zU4v-zq11pWea2lDjNRs-50">
          <mxGeometry x="158.2377049180328" y="247" width="120" height="60" as="geometry" />
        </mxCell>
        <mxCell id="zU4v-zq11pWea2lDjNRs-75" value="display game over screen" style="text;html=1;align=center;verticalAlign=middle;resizable=0;points=[];autosize=1;strokeColor=none;fillColor=none;" vertex="1" parent="zU4v-zq11pWea2lDjNRs-50">
          <mxGeometry x="318.2377049180328" y="315" width="160" height="30" as="geometry" />
        </mxCell>
        <mxCell id="zU4v-zq11pWea2lDjNRs-109" value="" style="rounded=0;whiteSpace=wrap;html=1;" vertex="1" parent="zU4v-zq11pWea2lDjNRs-50">
          <mxGeometry x="38.24" y="417" width="1391.76" height="195" as="geometry" />
        </mxCell>
        <mxCell id="zU4v-zq11pWea2lDjNRs-110" value="Opt" style="rounded=0;whiteSpace=wrap;html=1;" vertex="1" parent="zU4v-zq11pWea2lDjNRs-50">
          <mxGeometry x="38.239999999999995" y="417" width="61.93647540983607" height="25" as="geometry" />
        </mxCell>
        <mxCell id="zU4v-zq11pWea2lDjNRs-111" value="[timer runs out]" style="text;html=1;align=center;verticalAlign=middle;resizable=0;points=[];autosize=1;strokeColor=none;fillColor=none;" vertex="1" parent="zU4v-zq11pWea2lDjNRs-50">
          <mxGeometry x="180.44770491803277" y="417" width="100" height="30" as="geometry" />
        </mxCell>
        <mxCell id="zU4v-zq11pWea2lDjNRs-112" value="" style="rounded=0;whiteSpace=wrap;html=1;" vertex="1" parent="zU4v-zq11pWea2lDjNRs-50">
          <mxGeometry x="118.24" y="457" width="41.76" height="113" as="geometry" />
        </mxCell>
        <mxCell id="zU4v-zq11pWea2lDjNRs-113" value="" style="rounded=0;whiteSpace=wrap;html=1;" vertex="1" parent="zU4v-zq11pWea2lDjNRs-50">
          <mxGeometry x="276.48" y="457" width="41.76" height="113" as="geometry" />
        </mxCell>
        <mxCell id="zU4v-zq11pWea2lDjNRs-114" value="" style="rounded=0;whiteSpace=wrap;html=1;" vertex="1" parent="zU4v-zq11pWea2lDjNRs-50">
          <mxGeometry x="468.24" y="457" width="41.76" height="113" as="geometry" />
        </mxCell>
        <mxCell id="zU4v-zq11pWea2lDjNRs-115" value="" style="rounded=0;whiteSpace=wrap;html=1;" vertex="1" parent="zU4v-zq11pWea2lDjNRs-50">
          <mxGeometry x="668.24" y="457" width="41.76" height="113" as="geometry" />
        </mxCell>
        <mxCell id="zU4v-zq11pWea2lDjNRs-116" value="" style="rounded=0;whiteSpace=wrap;html=1;" vertex="1" parent="zU4v-zq11pWea2lDjNRs-50">
          <mxGeometry x="866.24" y="457" width="41.76" height="113" as="geometry" />
        </mxCell>
        <mxCell id="zU4v-zq11pWea2lDjNRs-117" value="" style="rounded=0;whiteSpace=wrap;html=1;" vertex="1" parent="zU4v-zq11pWea2lDjNRs-50">
          <mxGeometry x="1058.24" y="457" width="41.76" height="113" as="geometry" />
        </mxCell>
        <mxCell id="zU4v-zq11pWea2lDjNRs-118" value="" style="rounded=0;whiteSpace=wrap;html=1;" vertex="1" parent="zU4v-zq11pWea2lDjNRs-50">
          <mxGeometry x="1248.24" y="457" width="41.76" height="113" as="geometry" />
        </mxCell>
        <mxCell id="zU4v-zq11pWea2lDjNRs-119" value="" style="endArrow=classic;html=1;rounded=0;exitX=0;exitY=0.5;exitDx=0;exitDy=0;entryX=1;entryY=0.5;entryDx=0;entryDy=0;dashed=1;" edge="1" parent="zU4v-zq11pWea2lDjNRs-50" source="zU4v-zq11pWea2lDjNRs-118" target="zU4v-zq11pWea2lDjNRs-113">
          <mxGeometry width="50" height="50" relative="1" as="geometry">
            <mxPoint x="798.2377049180328" y="667" as="sourcePoint" />
            <mxPoint x="848.2377049180328" y="617" as="targetPoint" />
          </mxGeometry>
        </mxCell>
        <mxCell id="zU4v-zq11pWea2lDjNRs-120" value="display game over screen" style="text;html=1;align=center;verticalAlign=middle;resizable=0;points=[];autosize=1;strokeColor=none;fillColor=none;" vertex="1" parent="zU4v-zq11pWea2lDjNRs-50">
          <mxGeometry x="314.2377049180328" y="508" width="160" height="30" as="geometry" />
        </mxCell>
        <mxCell id="zU4v-zq11pWea2lDjNRs-121" value="" style="endArrow=classic;html=1;rounded=0;exitX=1;exitY=0.25;exitDx=0;exitDy=0;entryX=0;entryY=0.25;entryDx=0;entryDy=0;" edge="1" parent="zU4v-zq11pWea2lDjNRs-50" source="zU4v-zq11pWea2lDjNRs-113" target="zU4v-zq11pWea2lDjNRs-115">
          <mxGeometry width="50" height="50" relative="1" as="geometry">
            <mxPoint x="408.2377049180328" y="397" as="sourcePoint" />
            <mxPoint x="458.2377049180328" y="347" as="targetPoint" />
          </mxGeometry>
        </mxCell>
        <mxCell id="zU4v-zq11pWea2lDjNRs-122" value="checkTimer()" style="text;html=1;align=center;verticalAlign=middle;resizable=0;points=[];autosize=1;strokeColor=none;fillColor=none;" vertex="1" parent="zU4v-zq11pWea2lDjNRs-50">
          <mxGeometry x="338.2377049180328" y="480" width="90" height="30" as="geometry" />
        </mxCell>
        <mxCell id="zU4v-zq11pWea2lDjNRs-123" value="" style="endArrow=none;html=1;rounded=0;entryX=0.5;entryY=1;entryDx=0;entryDy=0;exitX=0.5;exitY=0;exitDx=0;exitDy=0;" edge="1" parent="zU4v-zq11pWea2lDjNRs-47" source="zU4v-zq11pWea2lDjNRs-112">
          <mxGeometry width="50" height="50" relative="1" as="geometry">
            <mxPoint x="150" y="734" as="sourcePoint" />
            <mxPoint x="170" y="607" as="targetPoint" />
          </mxGeometry>
        </mxCell>
        <mxCell id="zU4v-zq11pWea2lDjNRs-124" value="" style="endArrow=none;html=1;rounded=0;entryX=0.5;entryY=1;entryDx=0;entryDy=0;exitX=0.5;exitY=0;exitDx=0;exitDy=0;" edge="1" parent="zU4v-zq11pWea2lDjNRs-47" source="zU4v-zq11pWea2lDjNRs-113">
          <mxGeometry width="50" height="50" relative="1" as="geometry">
            <mxPoint x="250" y="724" as="sourcePoint" />
            <mxPoint x="330.53999999999996" y="606.9300000000003" as="targetPoint" />
          </mxGeometry>
        </mxCell>
        <mxCell id="zU4v-zq11pWea2lDjNRs-125" value="" style="endArrow=none;html=1;rounded=0;entryX=0.5;entryY=1;entryDx=0;entryDy=0;exitX=0.5;exitY=0;exitDx=0;exitDy=0;" edge="1" parent="zU4v-zq11pWea2lDjNRs-47">
          <mxGeometry width="50" height="50" relative="1" as="geometry">
            <mxPoint x="519" y="714" as="sourcePoint" />
            <mxPoint x="521" y="607" as="targetPoint" />
          </mxGeometry>
        </mxCell>
        <mxCell id="zU4v-zq11pWea2lDjNRs-126" value="" style="endArrow=none;html=1;rounded=0;entryX=0.5;entryY=1;entryDx=0;entryDy=0;exitX=0.5;exitY=0;exitDx=0;exitDy=0;" edge="1" parent="zU4v-zq11pWea2lDjNRs-47">
          <mxGeometry width="50" height="50" relative="1" as="geometry">
            <mxPoint x="719" y="714" as="sourcePoint" />
            <mxPoint x="721" y="607" as="targetPoint" />
          </mxGeometry>
        </mxCell>
        <mxCell id="zU4v-zq11pWea2lDjNRs-127" value="" style="endArrow=none;html=1;rounded=0;entryX=0.5;entryY=1;entryDx=0;entryDy=0;exitX=0.5;exitY=0;exitDx=0;exitDy=0;" edge="1" parent="zU4v-zq11pWea2lDjNRs-47">
          <mxGeometry width="50" height="50" relative="1" as="geometry">
            <mxPoint x="919" y="713" as="sourcePoint" />
            <mxPoint x="921" y="606" as="targetPoint" />
          </mxGeometry>
        </mxCell>
        <mxCell id="zU4v-zq11pWea2lDjNRs-128" value="" style="endArrow=none;html=1;rounded=0;entryX=0.5;entryY=1;entryDx=0;entryDy=0;exitX=0.5;exitY=0;exitDx=0;exitDy=0;" edge="1" parent="zU4v-zq11pWea2lDjNRs-47">
          <mxGeometry width="50" height="50" relative="1" as="geometry">
            <mxPoint x="1109" y="712" as="sourcePoint" />
            <mxPoint x="1111" y="605" as="targetPoint" />
          </mxGeometry>
        </mxCell>
        <mxCell id="zU4v-zq11pWea2lDjNRs-129" value="" style="endArrow=none;html=1;rounded=0;entryX=0.5;entryY=1;entryDx=0;entryDy=0;exitX=0.5;exitY=0;exitDx=0;exitDy=0;" edge="1" parent="zU4v-zq11pWea2lDjNRs-47">
          <mxGeometry width="50" height="50" relative="1" as="geometry">
            <mxPoint x="1299" y="712" as="sourcePoint" />
            <mxPoint x="1301" y="605" as="targetPoint" />
          </mxGeometry>
        </mxCell>
        <mxCell id="zU4v-zq11pWea2lDjNRs-131" value="" style="rounded=0;whiteSpace=wrap;html=1;" vertex="1" parent="zU4v-zq11pWea2lDjNRs-47">
          <mxGeometry x="308.54" y="-11.57" width="40" height="621.57" as="geometry" />
        </mxCell>
        <mxCell id="zU4v-zq11pWea2lDjNRs-132" value="" style="rounded=0;whiteSpace=wrap;html=1;" vertex="1" parent="zU4v-zq11pWea2lDjNRs-47">
          <mxGeometry x="148.54000000000002" y="-14.57" width="40" height="621.57" as="geometry" />
        </mxCell>
        <mxCell id="zU4v-zq11pWea2lDjNRs-133" value="" style="rounded=0;whiteSpace=wrap;html=1;" vertex="1" parent="zU4v-zq11pWea2lDjNRs-47">
          <mxGeometry x="499.54" y="-12.57" width="40" height="621.57" as="geometry" />
        </mxCell>
        <mxCell id="zU4v-zq11pWea2lDjNRs-134" value="" style="rounded=0;whiteSpace=wrap;html=1;" vertex="1" parent="zU4v-zq11pWea2lDjNRs-47">
          <mxGeometry x="699.54" y="-12.57" width="40" height="621.57" as="geometry" />
        </mxCell>
        <mxCell id="zU4v-zq11pWea2lDjNRs-135" value="" style="rounded=0;whiteSpace=wrap;html=1;" vertex="1" parent="zU4v-zq11pWea2lDjNRs-47">
          <mxGeometry x="900.54" y="-12.57" width="40" height="621.57" as="geometry" />
        </mxCell>
        <mxCell id="zU4v-zq11pWea2lDjNRs-136" value="" style="rounded=0;whiteSpace=wrap;html=1;" vertex="1" parent="zU4v-zq11pWea2lDjNRs-47">
          <mxGeometry x="1090.54" y="-16.57" width="40" height="621.57" as="geometry" />
        </mxCell>
        <mxCell id="zU4v-zq11pWea2lDjNRs-137" value="" style="rounded=0;whiteSpace=wrap;html=1;" vertex="1" parent="zU4v-zq11pWea2lDjNRs-47">
          <mxGeometry x="1280.54" y="-16.57" width="40" height="621.57" as="geometry" />
        </mxCell>
        <mxCell id="zU4v-zq11pWea2lDjNRs-1" value="Actor" style="shape=umlActor;verticalLabelPosition=bottom;verticalAlign=top;html=1;outlineConnect=0;" vertex="1" parent="1">
          <mxGeometry x="60" y="150" width="30" height="60" as="geometry" />
        </mxCell>
        <mxCell id="zU4v-zq11pWea2lDjNRs-3" value="Player Box" style="rounded=0;whiteSpace=wrap;html=1;" vertex="1" parent="1">
          <mxGeometry x="370" y="150" width="120" height="60" as="geometry" />
        </mxCell>
        <mxCell id="zU4v-zq11pWea2lDjNRs-4" value="Timer" style="rounded=0;whiteSpace=wrap;html=1;" vertex="1" parent="1">
          <mxGeometry x="570" y="150" width="120" height="60" as="geometry" />
        </mxCell>
        <mxCell id="zU4v-zq11pWea2lDjNRs-5" value="Tile" style="rounded=0;whiteSpace=wrap;html=1;" vertex="1" parent="1">
          <mxGeometry x="960" y="151" width="120" height="60" as="geometry" />
        </mxCell>
        <mxCell id="zU4v-zq11pWea2lDjNRs-6" value="GameOverScreen" style="rounded=0;whiteSpace=wrap;html=1;" vertex="1" parent="1">
          <mxGeometry x="1150" y="150" width="120" height="60" as="geometry" />
        </mxCell>
        <mxCell id="zU4v-zq11pWea2lDjNRs-7" value="Board" style="rounded=0;whiteSpace=wrap;html=1;" vertex="1" parent="1">
          <mxGeometry x="180" y="150" width="120" height="60" as="geometry" />
        </mxCell>
        <mxCell id="zU4v-zq11pWea2lDjNRs-9" value="" style="endArrow=none;html=1;rounded=0;entryX=0.5;entryY=1;entryDx=0;entryDy=0;exitX=0.5;exitY=0;exitDx=0;exitDy=0;" edge="1" parent="1" target="zU4v-zq11pWea2lDjNRs-7">
          <mxGeometry width="50" height="50" relative="1" as="geometry">
            <mxPoint x="240" y="240.0000000000001" as="sourcePoint" />
            <mxPoint x="320" y="360" as="targetPoint" />
          </mxGeometry>
        </mxCell>
        <mxCell id="zU4v-zq11pWea2lDjNRs-13" value="" style="endArrow=classic;html=1;rounded=0;exitX=1.029;exitY=0.036;exitDx=0;exitDy=0;exitPerimeter=0;entryX=-0.061;entryY=0.035;entryDx=0;entryDy=0;entryPerimeter=0;" edge="1" parent="1">
          <mxGeometry width="50" height="50" relative="1" as="geometry">
            <mxPoint x="101.16000000000031" y="290.4000000000001" as="sourcePoint" />
            <mxPoint x="217.56000000000017" y="288.6500000000001" as="targetPoint" />
          </mxGeometry>
        </mxCell>
        <mxCell id="zU4v-zq11pWea2lDjNRs-14" value="createGame()" style="text;html=1;strokeColor=none;fillColor=none;align=center;verticalAlign=middle;whiteSpace=wrap;rounded=0;" vertex="1" parent="1">
          <mxGeometry x="130" y="280" width="60" height="30" as="geometry" />
        </mxCell>
        <mxCell id="zU4v-zq11pWea2lDjNRs-16" value="" style="endArrow=none;html=1;rounded=0;entryX=0.5;entryY=1;entryDx=0;entryDy=0;exitX=0.5;exitY=0;exitDx=0;exitDy=0;" edge="1" parent="1">
          <mxGeometry width="50" height="50" relative="1" as="geometry">
            <mxPoint x="429.62" y="240" as="sourcePoint" />
            <mxPoint x="429.62" y="210" as="targetPoint" />
          </mxGeometry>
        </mxCell>
        <mxCell id="zU4v-zq11pWea2lDjNRs-20" value="" style="endArrow=none;html=1;rounded=0;entryX=0.5;entryY=1;entryDx=0;entryDy=0;exitX=0.5;exitY=0;exitDx=0;exitDy=0;" edge="1" parent="1">
          <mxGeometry width="50" height="50" relative="1" as="geometry">
            <mxPoint x="629.63" y="240" as="sourcePoint" />
            <mxPoint x="629.63" y="210" as="targetPoint" />
          </mxGeometry>
        </mxCell>
        <mxCell id="zU4v-zq11pWea2lDjNRs-21" value="" style="endArrow=none;html=1;rounded=0;entryX=0.5;entryY=1;entryDx=0;entryDy=0;exitX=0.5;exitY=0;exitDx=0;exitDy=0;" edge="1" parent="1">
          <mxGeometry width="50" height="50" relative="1" as="geometry">
            <mxPoint x="829.63" y="240" as="sourcePoint" />
            <mxPoint x="829.63" y="210" as="targetPoint" />
          </mxGeometry>
        </mxCell>
        <mxCell id="zU4v-zq11pWea2lDjNRs-29" value="" style="endArrow=classic;html=1;rounded=0;exitX=1.018;exitY=0.114;exitDx=0;exitDy=0;exitPerimeter=0;entryX=-0.045;entryY=0.115;entryDx=0;entryDy=0;entryPerimeter=0;" edge="1" parent="1">
          <mxGeometry width="50" height="50" relative="1" as="geometry">
            <mxPoint x="260.7199999999999" y="389.81999999999994" as="sourcePoint" />
            <mxPoint x="408.20000000000005" y="390.95000000000005" as="targetPoint" />
          </mxGeometry>
        </mxCell>
        <mxCell id="zU4v-zq11pWea2lDjNRs-30" value="getColumn()" style="text;html=1;align=center;verticalAlign=middle;resizable=0;points=[];autosize=1;strokeColor=none;fillColor=none;" vertex="1" parent="1">
          <mxGeometry x="290" y="384" width="90" height="30" as="geometry" />
        </mxCell>
        <mxCell id="zU4v-zq11pWea2lDjNRs-31" value="" style="endArrow=classic;html=1;rounded=0;exitX=1.007;exitY=0.016;exitDx=0;exitDy=0;exitPerimeter=0;entryX=-0.034;entryY=0.016;entryDx=0;entryDy=0;entryPerimeter=0;" edge="1" parent="1">
          <mxGeometry width="50" height="50" relative="1" as="geometry">
            <mxPoint x="260.28" y="262.24000000000024" as="sourcePoint" />
            <mxPoint x="408.6399999999999" y="262.08000000000004" as="targetPoint" />
          </mxGeometry>
        </mxCell>
        <mxCell id="zU4v-zq11pWea2lDjNRs-32" value="changeCols()" style="text;html=1;align=center;verticalAlign=middle;resizable=0;points=[];autosize=1;strokeColor=none;fillColor=none;" vertex="1" parent="1">
          <mxGeometry x="280" y="256" width="90" height="30" as="geometry" />
        </mxCell>
        <mxCell id="zU4v-zq11pWea2lDjNRs-35" value="" style="endArrow=classic;html=1;rounded=0;exitX=-0.055;exitY=0.041;exitDx=0;exitDy=0;exitPerimeter=0;entryX=1;entryY=0.041;entryDx=0;entryDy=0;entryPerimeter=0;dashed=1;" edge="1" parent="1">
          <mxGeometry width="50" height="50" relative="1" as="geometry">
            <mxPoint x="408" y="421" as="sourcePoint" />
            <mxPoint x="260" y="421" as="targetPoint" />
          </mxGeometry>
        </mxCell>
        <mxCell id="zU4v-zq11pWea2lDjNRs-36" value="display mxn" style="text;html=1;align=center;verticalAlign=middle;resizable=0;points=[];autosize=1;strokeColor=none;fillColor=none;" vertex="1" parent="1">
          <mxGeometry x="290" y="415" width="90" height="30" as="geometry" />
        </mxCell>
        <mxCell id="zU4v-zq11pWea2lDjNRs-39" value="" style="endArrow=classic;html=1;rounded=0;exitX=1.007;exitY=0.016;exitDx=0;exitDy=0;exitPerimeter=0;entryX=-0.033;entryY=0.015;entryDx=0;entryDy=0;entryPerimeter=0;" edge="1" parent="1">
          <mxGeometry width="50" height="50" relative="1" as="geometry">
            <mxPoint x="451" y="258" as="sourcePoint" />
            <mxPoint x="608.6800000000001" y="260.69999999999993" as="targetPoint" />
          </mxGeometry>
        </mxCell>
        <mxCell id="zU4v-zq11pWea2lDjNRs-40" value="createGame()" style="text;html=1;align=center;verticalAlign=middle;resizable=0;points=[];autosize=1;strokeColor=none;fillColor=none;" vertex="1" parent="1">
          <mxGeometry x="475" y="250" width="100" height="30" as="geometry" />
        </mxCell>
        <mxCell id="zU4v-zq11pWea2lDjNRs-41" value="" style="endArrow=classic;html=1;rounded=0;exitX=-0.055;exitY=0.041;exitDx=0;exitDy=0;exitPerimeter=0;entryX=1.077;entryY=0.029;entryDx=0;entryDy=0;entryPerimeter=0;dashed=1;" edge="1" parent="1">
          <mxGeometry width="50" height="50" relative="1" as="geometry">
            <mxPoint x="610" y="280" as="sourcePoint" />
            <mxPoint x="453.0799999999999" y="280.0200000000001" as="targetPoint" />
          </mxGeometry>
        </mxCell>
        <mxCell id="zU4v-zq11pWea2lDjNRs-43" value="timer started" style="text;html=1;align=center;verticalAlign=middle;resizable=0;points=[];autosize=1;strokeColor=none;fillColor=none;" vertex="1" parent="1">
          <mxGeometry x="480" y="273" width="90" height="30" as="geometry" />
        </mxCell>
        <mxCell id="zU4v-zq11pWea2lDjNRs-46" value="getColumn()" style="text;html=1;align=center;verticalAlign=middle;resizable=0;points=[];autosize=1;strokeColor=none;fillColor=none;" vertex="1" parent="1">
          <mxGeometry x="685" y="315" width="90" height="30" as="geometry" />
        </mxCell>
        <mxCell id="zU4v-zq11pWea2lDjNRs-48" value="" style="endArrow=classic;html=1;rounded=0;exitX=1.096;exitY=0.056;exitDx=0;exitDy=0;exitPerimeter=0;entryX=-0.059;entryY=0.058;entryDx=0;entryDy=0;entryPerimeter=0;" edge="1" parent="1">
          <mxGeometry width="50" height="50" relative="1" as="geometry">
            <mxPoint x="263.8399999999999" y="317.84000000000015" as="sourcePoint" />
            <mxPoint x="997.6399999999999" y="321.6199999999999" as="targetPoint" />
          </mxGeometry>
        </mxCell>
        <mxCell id="zU4v-zq11pWea2lDjNRs-49" value="" style="endArrow=classic;html=1;rounded=0;exitX=-0.063;exitY=0.073;exitDx=0;exitDy=0;exitPerimeter=0;entryX=1.019;entryY=0.074;entryDx=0;entryDy=0;entryPerimeter=0;dashed=1;" edge="1" parent="1">
          <mxGeometry width="50" height="50" relative="1" as="geometry">
            <mxPoint x="997.48" y="342.47" as="sourcePoint" />
            <mxPoint x="260.76" y="342.8600000000001" as="targetPoint" />
          </mxGeometry>
        </mxCell>
        <mxCell id="zU4v-zq11pWea2lDjNRs-51" value="" style="endArrow=classic;html=1;rounded=0;exitX=1.03;exitY=0.013;exitDx=0;exitDy=0;exitPerimeter=0;entryX=-0.059;entryY=0.058;entryDx=0;entryDy=0;entryPerimeter=0;" edge="1" parent="1">
          <mxGeometry width="50" height="50" relative="1" as="geometry">
            <mxPoint x="264.20000000000005" y="450.6899999999998" as="sourcePoint" />
            <mxPoint x="811" y="448" as="targetPoint" />
          </mxGeometry>
        </mxCell>
        <mxCell id="zU4v-zq11pWea2lDjNRs-52" value="getColumn" style="text;html=1;align=center;verticalAlign=middle;resizable=0;points=[];autosize=1;strokeColor=none;fillColor=none;" vertex="1" parent="1">
          <mxGeometry x="693" y="442" width="80" height="30" as="geometry" />
        </mxCell>
        <mxCell id="zU4v-zq11pWea2lDjNRs-53" value="display tiles" style="text;html=1;align=center;verticalAlign=middle;resizable=0;points=[];autosize=1;strokeColor=none;fillColor=none;" vertex="1" parent="1">
          <mxGeometry x="680" y="338" width="90" height="30" as="geometry" />
        </mxCell>
        <mxCell id="zU4v-zq11pWea2lDjNRs-54" value="" style="endArrow=classic;html=1;rounded=0;exitX=-0.036;exitY=0.084;exitDx=0;exitDy=0;exitPerimeter=0;entryX=1.022;entryY=0.082;entryDx=0;entryDy=0;entryPerimeter=0;dashed=1;" edge="1" parent="1">
          <mxGeometry width="50" height="50" relative="1" as="geometry">
            <mxPoint x="808" y="475" as="sourcePoint" />
            <mxPoint x="260" y="473" as="targetPoint" />
          </mxGeometry>
        </mxCell>
        <mxCell id="zU4v-zq11pWea2lDjNRs-55" value="display tiles" style="text;html=1;align=center;verticalAlign=middle;resizable=0;points=[];autosize=1;strokeColor=none;fillColor=none;" vertex="1" parent="1">
          <mxGeometry x="690" y="469" width="90" height="30" as="geometry" />
        </mxCell>
        <mxCell id="zU4v-zq11pWea2lDjNRs-59" value="" style="endArrow=classic;html=1;rounded=0;exitX=0.974;exitY=0.206;exitDx=0;exitDy=0;exitPerimeter=0;entryX=0.104;entryY=0.366;entryDx=0;entryDy=0;entryPerimeter=0;" edge="1" parent="1">
          <mxGeometry width="50" height="50" relative="1" as="geometry">
            <mxPoint x="99" y="624" as="sourcePoint" />
            <mxPoint x="1004.1599999999999" y="626.74" as="targetPoint" />
          </mxGeometry>
        </mxCell>
        <mxCell id="zU4v-zq11pWea2lDjNRs-61" value="CPU" style="rounded=0;whiteSpace=wrap;html=1;" vertex="1" parent="1">
          <mxGeometry x="771" y="150" width="120" height="60" as="geometry" />
        </mxCell>
        <mxCell id="zU4v-zq11pWea2lDjNRs-64" value="" style="endArrow=classic;html=1;rounded=0;exitX=-0.036;exitY=0.084;exitDx=0;exitDy=0;exitPerimeter=0;entryX=0.214;entryY=0.087;entryDx=0;entryDy=0;entryPerimeter=0;dashed=1;" edge="1" parent="1">
          <mxGeometry width="50" height="50" relative="1" as="geometry">
            <mxPoint x="1002" y="664" as="sourcePoint" />
            <mxPoint x="259.86803278688535" y="662.25" as="targetPoint" />
          </mxGeometry>
        </mxCell>
        <mxCell id="zU4v-zq11pWea2lDjNRs-65" value="update board" style="text;html=1;strokeColor=none;fillColor=none;align=center;verticalAlign=middle;whiteSpace=wrap;rounded=0;" vertex="1" parent="1">
          <mxGeometry x="290" y="656" width="90" height="30" as="geometry" />
        </mxCell>
        <mxCell id="zU4v-zq11pWea2lDjNRs-71" value="" style="endArrow=classic;html=1;rounded=0;exitX=0.951;exitY=0.605;exitDx=0;exitDy=0;exitPerimeter=0;entryX=0.017;entryY=0.609;entryDx=0;entryDy=0;entryPerimeter=0;" edge="1" parent="1">
          <mxGeometry width="50" height="50" relative="1" as="geometry">
            <mxPoint x="98.04000000000019" y="764" as="sourcePoint" />
            <mxPoint x="220.67999999999984" y="763.51" as="targetPoint" />
          </mxGeometry>
        </mxCell>
        <mxCell id="zU4v-zq11pWea2lDjNRs-74" value="" style="endArrow=classic;html=1;rounded=0;exitX=-0.051;exitY=0.66;exitDx=0;exitDy=0;exitPerimeter=0;dashed=1;" edge="1" parent="1">
          <mxGeometry width="50" height="50" relative="1" as="geometry">
            <mxPoint x="1187.9599999999996" y="824.4000000000001" as="sourcePoint" />
            <mxPoint x="260" y="823" as="targetPoint" />
          </mxGeometry>
        </mxCell>
        <mxCell id="zU4v-zq11pWea2lDjNRs-138" value="" style="endArrow=none;html=1;rounded=0;exitX=0.5;exitY=0;exitDx=0;exitDy=0;" edge="1" parent="1">
          <mxGeometry width="50" height="50" relative="1" as="geometry">
            <mxPoint x="1019.63" y="237" as="sourcePoint" />
            <mxPoint x="1020" y="210" as="targetPoint" />
          </mxGeometry>
        </mxCell>
        <mxCell id="zU4v-zq11pWea2lDjNRs-139" value="" style="endArrow=none;html=1;rounded=0;exitX=0.5;exitY=0;exitDx=0;exitDy=0;" edge="1" parent="1">
          <mxGeometry width="50" height="50" relative="1" as="geometry">
            <mxPoint x="1209.63" y="236" as="sourcePoint" />
            <mxPoint x="1210" y="209" as="targetPoint" />
          </mxGeometry>
        </mxCell>
      </root>
    </mxGraphModel>
  </diagram>
</mxfile>
